<?xml version="1.0" standalone="no"?>
<!DOCTYPE svg PUBLIC "-//W3C//DTD SVG 20010904//EN"
 "http://www.w3.org/TR/2001/REC-SVG-20010904/DTD/svg10.dtd">
<svg version="1.0" xmlns="http://www.w3.org/2000/svg"
 width="157.000000pt" height="191.000000pt" viewBox="0 0 157.000000 191.000000"
 preserveAspectRatio="xMidYMid meet">

<g transform="translate(0.000000,191.000000) scale(0.100000,-0.100000)"
fill="#000000" stroke="none">
<path d="M0 955 l0 -955 374 0 374 0 -1 35 c-1 35 -1 35 -46 35 l-46 1 28 15
c16 9 35 13 42 10 9 -3 12 0 9 9 -3 7 1 26 10 42 l15 28 1 -48 c0 -43 2 -46
18 -36 14 9 25 8 48 -4 l29 -16 -47 -1 -48 0 0 -35 0 -35 405 0 405 0 0 955 0
955 -785 0 -785 0 0 -955z m794 786 c23 -32 36 -41 69 -46 171 -26 338 -123
445 -258 60 -76 90 -129 67 -121 -18 7 -18 4 -5 -30 16 -44 3 -29 -31 34 -83
157 -275 296 -447 325 -23 4 -40 11 -36 16 3 5 -6 9 -20 9 -14 0 -33 10 -44
25 l-19 24 -7 -37 c-3 -20 -6 -55 -6 -77 l0 -39 -42 46 -43 47 -78 -20 c-259
-63 -455 -269 -516 -540 -14 -61 -20 -74 -20 -49 -2 34 -2 34 -17 15 -15 -19
-15 -19 -9 10 56 263 197 453 410 555 46 23 117 46 167 56 80 16 88 19 115 55
15 21 31 39 34 39 4 0 19 -18 33 -39z m91 -222 c5 -5 17 -9 27 -9 10 0 18 -6
18 -14 0 -7 12 -21 26 -31 23 -15 28 -15 49 -1 25 16 55 12 55 -7 0 -6 -9 -20
-20 -32 l-20 -22 36 -26 c28 -19 42 -24 55 -16 41 22 89 4 89 -33 0 -11 5 -15
15 -12 8 4 15 1 15 -5 0 -6 7 -11 15 -11 8 0 15 -4 15 -10 0 -5 6 -10 14 -10
8 0 17 -4 21 -9 3 -6 -26 -13 -66 -17 l-71 -7 34 -21 c18 -11 35 -24 36 -28 2
-5 14 -8 27 -8 32 0 105 -50 105 -72 0 -20 -18 -40 -72 -82 l-37 -27 -16 25
c-10 14 -23 26 -29 26 -7 0 -29 22 -49 49 -21 27 -45 55 -54 63 -15 12 -16 9
-10 -31 6 -51 1 -71 -20 -71 -13 0 -13 4 2 26 16 25 16 25 -4 14 -18 -9 -21
-8 -21 10 0 11 -5 19 -11 18 -6 -2 -27 25 -47 59 -22 37 -42 60 -50 58 -7 -3
-21 10 -31 28 -29 48 -104 147 -109 142 -2 -2 -6 -33 -7 -70 -2 -49 -10 -77
-31 -113 l-27 -47 31 29 c27 25 32 27 38 12 3 -9 1 -23 -6 -31 -13 -15 -40
-61 -61 -101 -6 -11 -20 -26 -32 -34 -20 -12 -21 -12 -8 4 8 9 12 19 9 21 -3
3 -11 -6 -18 -20 l-13 -25 -24 26 c-19 21 -23 33 -19 65 4 35 2 40 -20 45 -36
9 -57 -13 -51 -53 3 -18 2 -33 -3 -33 -4 0 -21 -12 -38 -27 -42 -39 -73 -56
-82 -46 -5 4 -10 24 -12 43 l-3 34 -43 -54 c-24 -30 -47 -55 -50 -55 -4 -1
-25 -18 -46 -38 -22 -20 -43 -37 -47 -37 -7 0 -21 27 -23 45 -6 49 -55 132
-70 117 -3 -3 -6 2 -6 12 0 25 29 78 54 98 18 15 19 18 4 18 -10 0 -18 4 -18
9 0 13 55 51 74 51 9 0 16 7 16 15 0 8 9 20 20 27 11 7 20 17 20 23 0 5 14 18
31 28 26 14 29 20 19 32 -11 13 -8 15 16 15 42 0 61 14 46 33 -15 18 4 28 62
32 21 1 42 8 46 15 4 6 10 11 14 11 3 -1 6 2 6 7 -2 26 307 36 335 11z m515
-304 c0 -5 -5 -3 -10 5 -5 8 -10 20 -10 25 0 6 5 3 10 -5 5 -8 10 -19 10 -25z
m24 -85 c4 -24 3 -29 -3 -15 -4 11 -11 36 -15 55 -4 24 -3 29 3 15 4 -11 11
-36 15 -55z m-642 -48 c-12 -16 -29 -35 -38 -43 -16 -13 -17 -12 -10 6 14 38
51 84 60 75 5 -5 0 -21 -12 -38z m655 -49 c-3 -10 -5 -4 -5 12 0 17 2 24 5 18
2 -7 2 -21 0 -30z m-336 -6 c-8 -8 -11 -7 -11 4 0 20 13 34 18 19 3 -7 -1 -17
-7 -23z m-291 -7 c-6 -12 -14 -20 -17 -17 -2 3 1 14 8 26 17 26 24 19 9 -9z
m-657 -84 c-6 -18 -8 -16 -13 14 -7 43 0 62 12 30 5 -12 5 -32 1 -44z m1207
13 c0 -28 -4 -48 -9 -45 -5 4 -12 0 -14 -6 -3 -7 -6 -1 -6 13 -1 25 17 89 25
89 2 0 4 -23 4 -51z m87 -11 c-2 -13 -4 -3 -4 22 0 25 2 35 4 23 2 -13 2 -33
0 -45z m-613 -3 c-4 -8 -8 -15 -10 -15 -2 0 -4 7 -4 15 0 8 4 15 10 15 5 0 7
-7 4 -15z m590 -72 c-33 -52 -49 -72 -56 -73 -17 0 -6 22 28 60 42 47 54 52
28 13z m-1304 -42 c-1 -11 -9 -6 -25 14 -32 39 -32 55 0 25 14 -13 25 -31 25
-39z m1185 -19 c-12 -13 -22 16 -17 48 l6 35 8 -39 c5 -21 6 -41 3 -44z
m-1095 37 c0 -11 -4 -17 -10 -14 -5 3 -10 1 -10 -5 0 -6 -4 -9 -10 -5 -6 4 -5
15 2 30 12 27 28 24 28 -6z m467 -71 c-3 -7 -5 -2 -5 12 0 14 2 19 5 13 2 -7
2 -19 0 -25z m-428 -45 c1 -7 -3 -13 -9 -13 -5 0 -10 15 -9 33 0 27 2 29 9 12
5 -11 9 -26 9 -32z m664 25 c-31 -15 -29 -23 7 -38 40 -16 35 -29 -20 -50 -24
-9 -46 -22 -47 -27 -2 -6 21 -21 52 -34 50 -21 54 -25 39 -36 -15 -11 -21 -10
-35 3 -9 8 -36 25 -59 37 -24 12 -43 26 -43 32 1 5 26 19 57 30 31 11 56 23
56 26 0 3 -11 11 -25 17 -14 6 -25 15 -25 20 0 10 38 31 55 31 6 0 0 -5 -12
-11z m347 -28 c0 -30 -4 -40 -16 -40 -11 0 -14 5 -10 16 3 9 9 27 12 40 9 35
14 29 14 -16z m-1096 -29 c4 -5 2 -12 -4 -16 -5 -3 -26 10 -47 30 l-38 36 42
-20 c23 -12 44 -25 47 -30z m1246 35 c0 -10 -91 -78 -97 -73 -8 9 16 37 52 59
29 17 45 22 45 14z m-1090 -102 c12 -19 20 -37 17 -40 -3 -3 -8 4 -12 15 -3
12 -11 19 -16 16 -5 -4 -9 -2 -9 4 0 5 -3 16 -6 25 -11 28 4 17 26 -20z m875
3 c-4 -14 -13 -28 -21 -31 -18 -7 -18 -2 2 35 18 36 28 33 19 -4z m-954 -68
c4 -7 6 -15 4 -17 -4 -4 -95 35 -95 41 0 10 83 -12 91 -24z m1104 22 c-8 -14
-91 -44 -107 -39 -17 6 26 30 72 39 19 4 36 7 38 8 2 0 1 -3 -3 -8z m-245 -35
c0 -2 -8 -10 -17 -17 -16 -13 -17 -12 -4 4 13 16 21 21 21 13z m-796 -88 c-3
-4 -15 -8 -27 -8 -15 0 -18 3 -9 8 17 11 43 11 36 0z m95 -175 c6 -31 8 -59 5
-62 -4 -3 -9 0 -11 7 -3 6 -11 12 -18 12 -7 0 -15 -6 -18 -12 -2 -7 -8 -10
-12 -6 -11 11 15 118 29 118 8 0 18 -23 25 -57z m39 31 c7 -42 16 -48 21 -15
3 19 11 36 18 38 7 3 10 -4 6 -19 -27 -117 -41 -126 -59 -34 -8 42 -8 56 0 53
6 -2 12 -12 14 -23z m122 16 c0 -5 -9 -10 -20 -10 -11 0 -20 -7 -20 -15 0 -8
7 -15 15 -15 8 0 15 -4 15 -9 0 -5 -7 -11 -15 -15 -22 -8 -18 -26 5 -26 11 0
20 -4 20 -10 0 -5 -13 -10 -30 -10 l-30 0 0 60 0 60 30 0 c17 0 30 -4 30 -10z
m54 -22 l14 -33 1 33 c2 59 21 33 21 -28 0 -67 -13 -77 -34 -27 l-14 32 -1
-32 c-2 -60 -21 -34 -21 27 0 67 13 77 34 28z m116 22 c0 -5 -4 -10 -10 -10
-5 0 -10 -22 -10 -50 0 -27 -4 -50 -10 -50 -5 0 -10 23 -10 50 0 28 -4 50 -10
50 -5 0 -10 5 -10 10 0 6 14 10 30 10 17 0 30 -4 30 -10z m42 -40 c4 -65 22
-65 26 0 2 27 6 50 10 50 4 0 5 -27 4 -61 -4 -59 -5 -60 -30 -57 -25 3 -27 7
-30 61 -2 33 1 57 7 57 5 0 11 -23 13 -50z m123 -12 c0 -64 -6 -72 -22 -30
l-11 27 -1 -27 c-2 -56 -21 -26 -21 33 0 60 0 60 28 57 26 -3 27 -5 27 -60z
m85 52 c0 -5 -9 -10 -20 -10 -11 0 -20 -7 -20 -15 0 -8 7 -15 15 -15 8 0 15
-4 15 -10 0 -5 -7 -10 -15 -10 -8 0 -15 -7 -15 -15 0 -8 9 -15 20 -15 11 0 20
-4 20 -10 0 -5 -13 -10 -30 -10 l-30 0 0 60 0 60 30 0 c17 0 30 -4 30 -10z
m85 -10 c3 -11 2 -27 -3 -37 -6 -10 -6 -26 -1 -40 12 -33 -9 -29 -23 5 l-12
27 -4 -27 c-6 -51 -22 -29 -22 32 0 60 0 60 29 60 21 0 32 -6 36 -20z m80 -40
c0 -52 -1 -55 -27 -58 -24 -3 -28 1 -34 33 -9 49 9 87 39 83 20 -3 22 -9 22
-58z m-430 -160 c3 -5 1 -10 -4 -10 -6 0 -11 5 -11 10 0 6 2 10 4 10 3 0 8 -4
11 -10z m270 -10 c-3 -5 -12 -10 -18 -10 -7 0 -6 4 3 10 19 12 23 12 15 0z
m-60 -25 c-16 -8 -37 -14 -45 -14 -8 0 1 7 20 14 46 18 64 17 25 0z m-300 -5
c13 -6 15 -9 5 -9 -8 0 -22 4 -30 9 -18 12 -2 12 25 0z"/>
<path d="M665 1140 c-3 -6 1 -7 9 -4 18 7 21 14 7 14 -6 0 -13 -4 -16 -10z"/>
<path d="M220 1001 c0 -5 7 -15 17 -22 15 -13 15 -12 4 9 -12 23 -21 28 -21
13z"/>
<path d="M235 950 c3 -5 11 -10 16 -10 6 0 7 5 4 10 -3 6 -11 10 -16 10 -6 0
-7 -4 -4 -10z"/>
<path d="M368 290 c-7 -24 -3 -38 8 -28 3 4 4 17 2 30 l-3 23 -7 -25z"/>
<path d="M860 299 c0 -11 5 -17 10 -14 6 3 10 13 10 21 0 8 -4 14 -10 14 -5 0
-10 -9 -10 -21z"/>
<path d="M1020 299 c0 -24 23 -21 28 4 2 10 -3 17 -12 17 -10 0 -16 -9 -16
-21z"/>
<path d="M1110 275 c0 -25 5 -45 10 -45 6 0 10 20 10 45 0 25 -4 45 -10 45 -5
0 -10 -20 -10 -45z"/>
</g>
</svg>
